<svg id="Layer_1" data-name="Layer 1" xmlns="http://www.w3.org/2000/svg" viewBox="0 0 90.75 90.75"><defs><style>.cls-1{fill:#fff;}.cls-1,.cls-2{stroke:#000;stroke-miterlimit:10;}.cls-2{fill:none;}</style></defs><title>a4</title><path d="M688.76,516v27a2.21,2.21,0,0,0,0,.67,1.45,1.45,0,0,1-.13.73,5.11,5.11,0,0,1-1.38,1.88,9.23,9.23,0,0,1-2.4,1.59,8.75,8.75,0,0,1-1.64.57,7.84,7.84,0,0,1-1.67.16,5.44,5.44,0,0,1-1.67-.27,3.08,3.08,0,0,1-1.13-.72,2.1,2.1,0,0,1-.72-1.4,3.65,3.65,0,0,1,.17-1.56,4.58,4.58,0,0,1,1-1.64,8.27,8.27,0,0,1,1.7-1.4,9.35,9.35,0,0,1,2.13-1,7.7,7.7,0,0,1,2.35-.36,4.26,4.26,0,0,1,1.57.27,4.56,4.56,0,0,1,1.22.72V516h0.6Z" transform="translate(-638 -494.22)"/><line class="cls-1" x1="81.83" y1="27.76" x2="10.08" y2="27.76"/><line class="cls-1" x1="81.83" y1="36.74" x2="10.08" y2="36.74"/><line class="cls-1" x1="81.83" y1="45.74" x2="10.08" y2="45.74"/><line class="cls-1" x1="81.91" y1="54.66" x2="10.16" y2="54.66"/><line class="cls-1" x1="81.83" y1="63.83" x2="10.08" y2="63.83"/><rect class="cls-2" x="0.5" y="0.5" width="89.75" height="89.75"/></svg>