<svg id="Layer_1" data-name="Layer 1" xmlns="http://www.w3.org/2000/svg" viewBox="0 0 90.75 90.75"><defs><style>.cls-1{fill:#fff;}.cls-1,.cls-2{stroke:#000;stroke-miterlimit:10;}.cls-2{fill:none;}</style></defs><title>b4b</title><line class="cls-1" x1="81.45" y1="28.03" x2="9.7" y2="28.03"/><line class="cls-1" x1="81.45" y1="37.02" x2="9.7" y2="37.02"/><line class="cls-1" x1="81.45" y1="46.02" x2="9.7" y2="46.02"/><line class="cls-1" x1="81.52" y1="54.93" x2="9.77" y2="54.93"/><line class="cls-1" x1="81.45" y1="64.1" x2="9.7" y2="64.1"/><path d="M967,685.7a2.57,2.57,0,0,1,0-.35,2.67,2.67,0,0,1,.14-0.41,5.12,5.12,0,0,1,1-1.65,8.14,8.14,0,0,1,1.68-1.41,9.05,9.05,0,0,1,2.11-1,7.7,7.7,0,0,1,2.35-.36,5,5,0,0,1,1.59.25,3.11,3.11,0,0,1,1.27.78,2.56,2.56,0,0,1,.67,1.29,3.09,3.09,0,0,1-.22,1.75,3.51,3.51,0,0,1-.54,1,6.21,6.21,0,0,1-.94,1,11.07,11.07,0,0,1-1.22.91,9.8,9.8,0,0,1-1.4.75,9.38,9.38,0,0,1-1.43.49,7,7,0,0,1-1.56.14,6.06,6.06,0,0,1-1.76-.29,2.84,2.84,0,0,1-1.19-.73v24.89H967v-27Z" transform="translate(-926.77 -638.25)"/><rect class="cls-2" x="0.5" y="0.5" width="89.75" height="89.75"/><path d="M959.75,680.74v1.78a4.71,4.71,0,0,1,1.25-.85,3.17,3.17,0,0,1,1.22-.23,1.49,1.49,0,0,1,1.35.66,2.79,2.79,0,0,1,.46,1.39,3.4,3.4,0,0,1-.35,1.51,2.48,2.48,0,0,1-.41.73,8,8,0,0,1-.56.62,7.37,7.37,0,0,1-.83.64q-0.64.44-1.35,0.91l-1.87,1.2V674.17h1.08v6.57Zm2,2.36a0.82,0.82,0,0,0-.33-0.25,1.11,1.11,0,0,0-.46-0.1,0.93,0.93,0,0,0-.48.14,1.2,1.2,0,0,0-.42.52,2.51,2.51,0,0,0-.25,1.06c0,0.4,0,.79,0,1.18v2.16a4.07,4.07,0,0,0,.5-0.42l0.42-.41,0.43-.41a4.38,4.38,0,0,0,.56-0.7,3.45,3.45,0,0,0,.41-0.93A1.84,1.84,0,0,0,961.72,683.09Z" transform="translate(-926.77 -638.25)"/></svg>