<svg id="Layer_1" data-name="Layer 1" xmlns="http://www.w3.org/2000/svg" viewBox="0 0 90.75 90.75"><defs><style>.cls-1{fill:#fff;}.cls-1,.cls-2{stroke:#000;stroke-miterlimit:10;}.cls-2{fill:none;}</style></defs><title>c5</title><line class="cls-1" x1="81.18" y1="27.39" x2="9.43" y2="27.39"/><line class="cls-1" x1="81.18" y1="36.38" x2="9.43" y2="36.38"/><line class="cls-1" x1="81.18" y1="45.38" x2="9.43" y2="45.38"/><line class="cls-1" x1="81.25" y1="54.29" x2="9.5" y2="54.29"/><line class="cls-1" x1="81.18" y1="63.46" x2="9.43" y2="63.46"/><path d="M1110.69,535.68a2.57,2.57,0,0,1,0-.35,2.67,2.67,0,0,1,.14-0.41,5.12,5.12,0,0,1,1-1.65,8.14,8.14,0,0,1,1.68-1.41,9.05,9.05,0,0,1,2.11-1,7.7,7.7,0,0,1,2.35-.36,5,5,0,0,1,1.59.25,3.11,3.11,0,0,1,1.27.78,2.56,2.56,0,0,1,.67,1.29,3.09,3.09,0,0,1-.22,1.75,3.51,3.51,0,0,1-.54,1,6.21,6.21,0,0,1-.94,1,11.07,11.07,0,0,1-1.22.91,9.8,9.8,0,0,1-1.4.75,9.38,9.38,0,0,1-1.43.49,7,7,0,0,1-1.56.14,6.06,6.06,0,0,1-1.76-.29,2.84,2.84,0,0,1-1.19-.73V562.7h-0.6v-27Z" transform="translate(-1070.43 -494.15)"/><rect class="cls-2" x="0.5" y="0.5" width="89.75" height="89.75"/></svg>