<svg id="Layer_1" data-name="Layer 1" xmlns="http://www.w3.org/2000/svg" viewBox="0 0 71.82 48.42"><defs><style>.cls-1{fill:#fff;stroke:#000;stroke-miterlimit:10;}</style></defs><title>d1#</title><path d="M832.75,380.42v27a2.21,2.21,0,0,0,0,.67,1.45,1.45,0,0,1-.13.73,5.11,5.11,0,0,1-1.38,1.88,9.23,9.23,0,0,1-2.4,1.59,8.75,8.75,0,0,1-1.64.57,7.84,7.84,0,0,1-1.67.16,5.44,5.44,0,0,1-1.67-.27,3.08,3.08,0,0,1-1.13-.72,2.1,2.1,0,0,1-.72-1.4,3.65,3.65,0,0,1,.17-1.56,4.58,4.58,0,0,1,1-1.64,8.27,8.27,0,0,1,1.7-1.4,9.35,9.35,0,0,1,2.13-1,7.7,7.7,0,0,1,2.35-.36,4.26,4.26,0,0,1,1.57.27,4.56,4.56,0,0,1,1.22.72V380.42h0.6Z" transform="translate(-792.07 -367.92)"/><line class="cls-1" x1="71.75" y1="0.5" y2="0.5"/><line class="cls-1" x1="71.75" y1="9.49" y2="9.49"/><line class="cls-1" x1="71.75" y1="18.49" y2="18.49"/><line class="cls-1" x1="71.82" y1="27.4" x2="0.07" y2="27.4"/><line class="cls-1" x1="71.75" y1="36.57" y2="36.57"/><path d="M816.33,406v-3.43h0.92v3.11l1.75-.57V402h0.92v2.8l0.79-.25v2.16l-0.79.25v3.11l0.79-.22V412l-0.79.25v3.5H819v-3.18l-1.75.54v3.21h-0.92v-2.86l-0.92.29v-2.16l0.92-.32v-3.12l-0.92.29V406.3Zm0.92,1.84V411l1.75-.6v-3.12Z" transform="translate(-792.07 -367.92)"/></svg>