<svg id="Layer_1" data-name="Layer 1" xmlns="http://www.w3.org/2000/svg" viewBox="0 0 90.75 90.75"><defs><style>.cls-1{fill:#fff;}.cls-1,.cls-2{stroke:#000;stroke-miterlimit:10;}.cls-2{fill:none;}.cls-3{font-size:12px;font-family:Titillium Web;}</style></defs><title>f4#g4b</title><path d="M1100.88,236v27a2.21,2.21,0,0,0,0,.67,1.45,1.45,0,0,1-.13.73,5.11,5.11,0,0,1-1.38,1.88,9.23,9.23,0,0,1-2.4,1.59,8.75,8.75,0,0,1-1.64.57,7.84,7.84,0,0,1-1.67.16,5.44,5.44,0,0,1-1.67-.27,3.08,3.08,0,0,1-1.13-.72,2.1,2.1,0,0,1-.72-1.4,3.65,3.65,0,0,1,.17-1.56,4.58,4.58,0,0,1,1-1.64,8.27,8.27,0,0,1,1.7-1.4,9.35,9.35,0,0,1,2.13-1,7.7,7.7,0,0,1,2.35-.36,4.26,4.26,0,0,1,1.57.27,4.56,4.56,0,0,1,1.22.72V236h0.6Z" transform="translate(-1070.77 -205.97)"/><line class="cls-1" x1="81.17" y1="27.07" x2="9.42" y2="27.07"/><line class="cls-1" x1="81.17" y1="36.05" x2="9.42" y2="36.05"/><line class="cls-1" x1="81.17" y1="45.05" x2="9.42" y2="45.05"/><line class="cls-1" x1="81.25" y1="53.97" x2="9.5" y2="53.97"/><line class="cls-1" x1="81.17" y1="63.13" x2="9.42" y2="63.13"/><rect class="cls-2" x="0.5" y="0.5" width="89.75" height="89.75"/><path d="M1140.13,231.54v27a2.21,2.21,0,0,0,0,.67,1.45,1.45,0,0,1-.13.73,5.11,5.11,0,0,1-1.38,1.88,9.23,9.23,0,0,1-2.4,1.59,8.75,8.75,0,0,1-1.64.57,7.84,7.84,0,0,1-1.67.16,5.44,5.44,0,0,1-1.67-.27,3.08,3.08,0,0,1-1.13-.72,2.1,2.1,0,0,1-.72-1.4,3.65,3.65,0,0,1,.17-1.56,4.58,4.58,0,0,1,1-1.64,8.27,8.27,0,0,1,1.7-1.4,9.35,9.35,0,0,1,2.13-1,7.7,7.7,0,0,1,2.35-.36,4.26,4.26,0,0,1,1.57.27,4.56,4.56,0,0,1,1.22.72V231.54h0.6Z" transform="translate(-1070.77 -205.97)"/><path d="M1124.43,255.8v1.78a4.71,4.71,0,0,1,1.25-.85,3.17,3.17,0,0,1,1.22-.23,1.49,1.49,0,0,1,1.35.66,2.79,2.79,0,0,1,.46,1.39,3.4,3.4,0,0,1-.35,1.51,2.48,2.48,0,0,1-.41.73,8,8,0,0,1-.56.62,7.37,7.37,0,0,1-.83.64q-0.64.44-1.35,0.91l-1.87,1.2V249.23h1.08v6.57Zm2,2.36a0.82,0.82,0,0,0-.33-0.25,1.11,1.11,0,0,0-.46-0.1,0.93,0.93,0,0,0-.48.14,1.2,1.2,0,0,0-.42.52,2.51,2.51,0,0,0-.25,1.06c0,0.4,0,.79,0,1.18v2.16a4.07,4.07,0,0,0,.5-0.42l0.42-.41,0.43-.41a4.38,4.38,0,0,0,.56-0.7,3.45,3.45,0,0,0,.41-0.93A1.84,1.84,0,0,0,1126.4,258.16Z" transform="translate(-1070.77 -205.97)"/><path d="M1084.75,262v-3.43h0.92v3.11l1.75-.57V258h0.92v2.8l0.79-.25v2.16l-0.79.25v3.11l0.79-.22V268l-0.79.25v3.5h-0.92v-3.18l-1.75.54v3.21h-0.92v-2.86l-0.92.29v-2.16l0.92-.32v-3.12l-0.92.29v-2.16Zm0.92,1.84V267l1.75-.6v-3.12Z" transform="translate(-1070.77 -205.97)"/><text class="cls-3" transform="translate(37.48 52.6)">or</text></svg>