<svg id="Layer_1" data-name="Layer 1" xmlns="http://www.w3.org/2000/svg" viewBox="0 0 676.32 389"><defs><style>.cls-1,.cls-4{fill:none;}.cls-1,.cls-2{stroke:#000;stroke-miterlimit:10;}.cls-2{fill:#fff;}.cls-3{font-size:12px;font-family:Titillium Web;}</style></defs><title>pianoIntNote</title><rect class="cls-1" x="56.4" y="49.12" width="69.78" height="288.22"/><rect class="cls-1" x="127.65" y="49.12" width="69.78" height="288.22"/><rect class="cls-1" x="198.89" y="49.12" width="69.78" height="288.22"/><rect class="cls-1" x="270.14" y="49.12" width="69.78" height="288.22"/><rect class="cls-1" x="341.38" y="49.12" width="69.78" height="288.22"/><rect class="cls-1" x="412.62" y="49.12" width="69.78" height="288.22"/><rect class="cls-1" x="483.87" y="49.12" width="69.78" height="288.22"/><rect class="cls-1" x="555.11" y="49.12" width="69.78" height="288.22"/><rect class="cls-2" x="108.74" y="49.12" width="34.89" height="153.6"/><rect class="cls-2" x="180.71" y="49.12" width="34.89" height="153.6"/><rect class="cls-2" x="325.21" y="49.12" width="34.89" height="153.6"/><rect class="cls-2" x="397.18" y="49.12" width="34.89" height="153.6"/><rect class="cls-2" x="466.42" y="49.12" width="34.89" height="153.6"/><rect class="cls-2" x="607.44" y="49.12" width="34.89" height="153.6"/><text class="cls-3" transform="translate(87.32 283.5)">C</text><text class="cls-3" transform="translate(585.32 283.5)">C</text><text class="cls-3" transform="translate(159.32 283.5)">D</text><text class="cls-3" transform="translate(229.32 283.5)">E</text><text class="cls-3" transform="translate(303.02 283.5)">F</text><text class="cls-3" transform="translate(371.27 283.5)">G</text><text class="cls-3" transform="translate(442.27 283.5)">A</text><text class="cls-3" transform="translate(512.02 283.5)">B</text><text class="cls-3" transform="translate(117.77 129.82)">C#<tspan x="0" y="14.4"> </tspan><tspan x="0" y="28.8">Db</tspan></text><text class="cls-3" transform="translate(190.77 129.82)">D#<tspan x="0" y="14.4"> </tspan><tspan x="0" y="28.8">Eb</tspan></text><text class="cls-3" transform="translate(336.27 129.82)">F#<tspan x="0" y="14.4"> </tspan><tspan x="0" y="28.8">Gb</tspan></text><text class="cls-3" transform="translate(408.27 129.82)">G#<tspan x="0" y="14.4"> </tspan><tspan x="0" y="28.8">Ab</tspan></text><text class="cls-3" transform="translate(478.77 129.82)">A#<tspan x="0" y="14.4"> </tspan><tspan x="0" y="28.8">Bb</tspan></text><text class="cls-3" transform="translate(99.32 373.5)">Whole <tspan x="34.88" y="0">S</tspan><tspan x="41.28" y="0">tep</tspan></text><text class="cls-3" transform="translate(76.65 26.67)">Half <tspan x="23.5" y="0">S</tspan><tspan x="29.89" y="0">tep</tspan></text><line class="cls-4" x1="501.31" y1="13.5" x2="519.31" y2="13.5"/><path d="M1369.29,442.33a7.23,7.23,0,0,1,2.24.63c7.51,4.93,15.52,5.49,23.59,4.22s16.34-3.28,24.53-4.71a20.35,20.35,0,0,1,12.44,1.42c3.17,1.49,5.66,4.16,7.77,7.66a4.44,4.44,0,0,0,.63-0.66c3.74-6.37,8.91-9.19,14.83-8.83a156.82,156.82,0,0,1,19.27,2.71c6.77,1.27,13.53,2.47,20.38,1.83A28.75,28.75,0,0,0,1508,442a4.29,4.29,0,0,1,2.58-.56,39.32,39.32,0,0,1-13.15,8.18c-9,3.41-18,2.27-26.93-.8-4.11-1.41-8.24-2.81-12.4-3.89-6.74-1.75-12.59.57-17.32,7.18-0.2.27-.42,0.51-0.71,0.85a5.36,5.36,0,0,1-.82-0.75c-5.3-7.25-11.78-8.9-19-6.67-5.6,1.74-11.12,3.95-16.73,5.57-12.14,3.5-23.49.46-34.11-7.84a1.46,1.46,0,0,1-.23-0.33Z" transform="translate(-1313.18 -94.5)"/><path d="M1456.77,133.89a5.19,5.19,0,0,1-1.4-.33c-4.7-2.59-9.7-2.87-14.76-2.2s-10.23,1.74-15.35,2.5a14.94,14.94,0,0,1-7.79-.74,10.88,10.88,0,0,1-4.85-4,2.58,2.58,0,0,0-.39.35,10.23,10.23,0,0,1-9.29,4.66,115.54,115.54,0,0,1-12.06-1.41,54.21,54.21,0,0,0-12.75-.95,20.32,20.32,0,0,0-8.17,2.46,3.11,3.11,0,0,1-1.61.3,25.81,25.81,0,0,1,8.24-4.32c5.65-1.8,11.26-1.21,16.85.4,2.57,0.74,5.15,1.47,7.76,2a10.5,10.5,0,0,0,10.85-3.79c0.12-.14.27-0.27,0.45-0.45a3.2,3.2,0,0,1,.52.4c3.31,3.81,7.36,4.68,11.87,3.49,3.51-.92,7-2.09,10.48-2.95,7.6-1.85,14.7-.26,21.34,4.1a0.78,0.78,0,0,1,.14.18Z" transform="translate(-1313.18 -94.5)"/><rect class="cls-1" x="0.5" y="0.5" width="675.32" height="388"/><path d="M1407.29,333v16.19a1.32,1.32,0,0,0,0,.4,0.87,0.87,0,0,1-.08.44,3.06,3.06,0,0,1-.83,1.12,5.53,5.53,0,0,1-1.44,1,5.24,5.24,0,0,1-1,.34,4.69,4.69,0,0,1-1,.09,3.26,3.26,0,0,1-1-.16,1.85,1.85,0,0,1-.68-0.43,1.26,1.26,0,0,1-.43-0.84,2.19,2.19,0,0,1,.1-0.93,2.74,2.74,0,0,1,.6-1,5,5,0,0,1,1-.84,5.6,5.6,0,0,1,1.28-.59,4.61,4.61,0,0,1,1.41-.22,2.55,2.55,0,0,1,.94.16,2.73,2.73,0,0,1,.73.43V333h0.36Z" transform="translate(-1313.18 -94.5)"/><line class="cls-2" x1="112.72" y1="228.29" x2="69.74" y2="228.29"/><line class="cls-2" x1="112.72" y1="233.67" x2="69.74" y2="233.67"/><line class="cls-2" x1="112.72" y1="239.06" x2="69.74" y2="239.06"/><line class="cls-2" x1="112.76" y1="244.41" x2="69.78" y2="244.41"/><line class="cls-2" x1="112.72" y1="249.9" x2="69.74" y2="249.9"/><line class="cls-2" x1="85.84" y1="255.27" x2="96.62" y2="255.27"/><rect class="cls-1" x="64.41" y="212.7" width="53.77" height="53.77"/><path d="M1478.53,330v16.19a1.32,1.32,0,0,0,0,.4,0.87,0.87,0,0,1-.08.44,3.06,3.06,0,0,1-.83,1.12,5.53,5.53,0,0,1-1.44,1,5.24,5.24,0,0,1-1,.34,4.69,4.69,0,0,1-1,.09,3.26,3.26,0,0,1-1-.16,1.85,1.85,0,0,1-.68-0.43,1.26,1.26,0,0,1-.43-0.84,2.19,2.19,0,0,1,.1-0.93,2.74,2.74,0,0,1,.6-1,5,5,0,0,1,1-.84,5.6,5.6,0,0,1,1.28-.59,4.61,4.61,0,0,1,1.41-.22,2.55,2.55,0,0,1,.94.16,2.73,2.73,0,0,1,.73.43V330h0.36Z" transform="translate(-1313.18 -94.5)"/><line class="cls-2" x1="183.96" y1="228.29" x2="140.98" y2="228.29"/><line class="cls-2" x1="183.96" y1="233.67" x2="140.98" y2="233.67"/><line class="cls-2" x1="183.96" y1="239.06" x2="140.98" y2="239.06"/><line class="cls-2" x1="184.01" y1="244.41" x2="141.02" y2="244.41"/><line class="cls-2" x1="183.96" y1="249.9" x2="140.98" y2="249.9"/><rect class="cls-1" x="135.65" y="212.7" width="53.77" height="53.77"/><path d="M1549.77,328v16.19a1.32,1.32,0,0,0,0,.4,0.87,0.87,0,0,1-.08.44,3.06,3.06,0,0,1-.83,1.12,5.53,5.53,0,0,1-1.44,1,5.24,5.24,0,0,1-1,.34,4.69,4.69,0,0,1-1,.09,3.26,3.26,0,0,1-1-.16,1.85,1.85,0,0,1-.68-0.43,1.26,1.26,0,0,1-.43-0.84,2.19,2.19,0,0,1,.1-0.93,2.74,2.74,0,0,1,.6-1,5,5,0,0,1,1-.84,5.6,5.6,0,0,1,1.28-.59,4.61,4.61,0,0,1,1.41-.22,2.55,2.55,0,0,1,.94.16,2.73,2.73,0,0,1,.73.43V328h0.36Z" transform="translate(-1313.18 -94.5)"/><line class="cls-2" x1="255.2" y1="228.29" x2="212.22" y2="228.29"/><line class="cls-2" x1="255.2" y1="233.67" x2="212.22" y2="233.67"/><line class="cls-2" x1="255.2" y1="239.06" x2="212.22" y2="239.06"/><line class="cls-2" x1="255.25" y1="244.41" x2="212.27" y2="244.41"/><line class="cls-2" x1="255.2" y1="249.9" x2="212.22" y2="249.9"/><rect class="cls-1" x="206.9" y="212.7" width="53.77" height="53.77"/><path d="M1621,324.31V340.5a1.32,1.32,0,0,0,0,.4,0.87,0.87,0,0,1-.08.44,3.06,3.06,0,0,1-.83,1.12,5.53,5.53,0,0,1-1.44,1,5.24,5.24,0,0,1-1,.34,4.69,4.69,0,0,1-1,.09,3.26,3.26,0,0,1-1-.16,1.85,1.85,0,0,1-.68-0.43,1.26,1.26,0,0,1-.43-0.84,2.19,2.19,0,0,1,.1-0.93,2.74,2.74,0,0,1,.6-1,5,5,0,0,1,1-.84,5.6,5.6,0,0,1,1.28-.59,4.61,4.61,0,0,1,1.41-.22,2.55,2.55,0,0,1,.94.16,2.73,2.73,0,0,1,.73.43V324.31H1621Z" transform="translate(-1313.18 -94.5)"/><line class="cls-2" x1="326.45" y1="227.78" x2="283.47" y2="227.78"/><line class="cls-2" x1="326.45" y1="233.16" x2="283.47" y2="233.16"/><line class="cls-2" x1="326.45" y1="238.55" x2="283.47" y2="238.55"/><line class="cls-2" x1="326.49" y1="243.89" x2="283.51" y2="243.89"/><line class="cls-2" x1="326.45" y1="249.38" x2="283.47" y2="249.38"/><rect class="cls-1" x="278.14" y="212.18" width="53.77" height="53.77"/><path d="M1692.13,321.46v16.19a1.32,1.32,0,0,0,0,.4,0.87,0.87,0,0,1-.08.44,3.06,3.06,0,0,1-.83,1.12,5.53,5.53,0,0,1-1.44,1,5.24,5.24,0,0,1-1,.34,4.69,4.69,0,0,1-1,.09,3.26,3.26,0,0,1-1-.16,1.85,1.85,0,0,1-.68-0.43,1.26,1.26,0,0,1-.43-0.84,2.19,2.19,0,0,1,.1-0.93,2.74,2.74,0,0,1,.6-1,5,5,0,0,1,1-.84,5.6,5.6,0,0,1,1.28-.59,4.61,4.61,0,0,1,1.41-.22,2.55,2.55,0,0,1,.94.16,2.73,2.73,0,0,1,.73.43V321.46h0.36Z" transform="translate(-1313.18 -94.5)"/><line class="cls-2" x1="397.56" y1="227.78" x2="354.58" y2="227.78"/><line class="cls-2" x1="397.56" y1="233.16" x2="354.58" y2="233.16"/><line class="cls-2" x1="397.56" y1="238.55" x2="354.58" y2="238.55"/><line class="cls-2" x1="397.6" y1="243.89" x2="354.62" y2="243.89"/><line class="cls-2" x1="397.56" y1="249.38" x2="354.58" y2="249.38"/><rect class="cls-1" x="349.25" y="212.18" width="53.77" height="53.77"/><line class="cls-2" x1="468.8" y1="227.26" x2="425.82" y2="227.26"/><line class="cls-2" x1="468.8" y1="232.64" x2="425.82" y2="232.64"/><line class="cls-2" x1="468.8" y1="238.04" x2="425.82" y2="238.04"/><line class="cls-2" x1="468.85" y1="243.38" x2="425.87" y2="243.38"/><line class="cls-2" x1="468.8" y1="248.87" x2="425.82" y2="248.87"/><rect class="cls-1" x="420.5" y="211.67" width="53.77" height="53.77"/><path d="M1763,318.15v16.19a1.32,1.32,0,0,0,0,.4,0.87,0.87,0,0,1-.08.44,3.06,3.06,0,0,1-.83,1.12,5.53,5.53,0,0,1-1.44,1,5.24,5.24,0,0,1-1,.34,4.69,4.69,0,0,1-1,.09,3.26,3.26,0,0,1-1-.16,1.85,1.85,0,0,1-.68-0.43,1.26,1.26,0,0,1-.43-0.84,2.19,2.19,0,0,1,.1-0.93,2.74,2.74,0,0,1,.6-1,5,5,0,0,1,1-.84,5.6,5.6,0,0,1,1.28-.59,4.61,4.61,0,0,1,1.41-.22,2.55,2.55,0,0,1,.94.16,2.73,2.73,0,0,1,.73.43V318.15H1763Z" transform="translate(-1313.18 -94.5)"/><path d="M1835.24,316.31V332.5a1.32,1.32,0,0,0,0,.4,0.87,0.87,0,0,1-.08.44,3.06,3.06,0,0,1-.83,1.12,5.53,5.53,0,0,1-1.44,1,5.24,5.24,0,0,1-1,.34,4.69,4.69,0,0,1-1,.09,3.26,3.26,0,0,1-1-.16,1.85,1.85,0,0,1-.68-0.43,1.26,1.26,0,0,1-.43-0.84,2.19,2.19,0,0,1,.1-0.93,2.74,2.74,0,0,1,.6-1,5,5,0,0,1,1-.84,5.6,5.6,0,0,1,1.28-.59,4.61,4.61,0,0,1,1.41-.22,2.55,2.55,0,0,1,.94.16,2.73,2.73,0,0,1,.73.43V316.31h0.36Z" transform="translate(-1313.18 -94.5)"/><line class="cls-2" x1="540.73" y1="227.78" x2="497.75" y2="227.78"/><line class="cls-2" x1="540.73" y1="233.16" x2="497.75" y2="233.16"/><line class="cls-2" x1="540.73" y1="238.55" x2="497.75" y2="238.55"/><line class="cls-2" x1="540.78" y1="243.89" x2="497.8" y2="243.89"/><line class="cls-2" x1="540.73" y1="249.38" x2="497.75" y2="249.38"/><rect class="cls-1" x="492.43" y="212.18" width="53.77" height="53.77"/><path d="M1907.24,314v16.19a1.32,1.32,0,0,0,0,.4,0.87,0.87,0,0,1-.08.44,3.06,3.06,0,0,1-.83,1.12,5.53,5.53,0,0,1-1.44,1,5.24,5.24,0,0,1-1,.34,4.69,4.69,0,0,1-1,.09,3.26,3.26,0,0,1-1-.16,1.85,1.85,0,0,1-.68-0.43,1.26,1.26,0,0,1-.43-0.84,2.19,2.19,0,0,1,.1-0.93,2.74,2.74,0,0,1,.6-1,5,5,0,0,1,1-.84,5.6,5.6,0,0,1,1.28-.59,4.61,4.61,0,0,1,1.41-.22,2.55,2.55,0,0,1,.94.16,2.73,2.73,0,0,1,.73.43V314h0.36Z" transform="translate(-1313.18 -94.5)"/><line class="cls-2" x1="612.67" y1="228.29" x2="569.68" y2="228.29"/><line class="cls-2" x1="612.67" y1="233.67" x2="569.68" y2="233.67"/><line class="cls-2" x1="612.67" y1="239.06" x2="569.68" y2="239.06"/><line class="cls-2" x1="612.71" y1="244.41" x2="569.73" y2="244.41"/><line class="cls-2" x1="612.67" y1="249.9" x2="569.68" y2="249.9"/><rect class="cls-1" x="564.36" y="212.7" width="53.77" height="53.77"/><line class="cls-2" x1="42.82" y1="225.9" x2="16.57" y2="225.9"/><line class="cls-2" x1="42.82" y1="234.88" x2="16.57" y2="234.88"/><line class="cls-2" x1="43.49" y1="243.88" x2="16.57" y2="243.88"/><line class="cls-2" x1="43.49" y1="252.8" x2="16.64" y2="252.8"/><line class="cls-2" x1="43.49" y1="261.97" x2="16.57" y2="261.97"/><rect class="cls-1" x="7.37" y="198.37" width="44.87" height="89.75"/><path d="M1333.11,349.26a11.18,11.18,0,0,0,2.38,2.8,17.16,17.16,0,0,0,4,2.51,5.39,5.39,0,0,0,1.34.42,14.37,14.37,0,0,0,1.79.23q1,0.07,2,0a13.43,13.43,0,0,0,1.92-.19c0.15,1,.28,1.88.37,2.52s0.19,1.27.29,1.86,0.16,1,.18,1.12a22.91,22.91,0,0,1,.16,2.71,4.42,4.42,0,0,1-.45,2.17,5.76,5.76,0,0,1-.86,1.18,5.47,5.47,0,0,1-1.13.92,6.71,6.71,0,0,1-1.32.63,4.26,4.26,0,0,1-1.41.24,5.5,5.5,0,0,1-2.28-.42,2.82,2.82,0,0,1-1.21-.87,5.12,5.12,0,0,0,2.84-1.66,3.33,3.33,0,0,0,.74-2.31,3.07,3.07,0,0,0-.41-1.26,3.34,3.34,0,0,0-.84-1,3.88,3.88,0,0,0-1.1-.6,3,3,0,0,0-1.18-.18,3.42,3.42,0,0,0-1.63.48,3.54,3.54,0,0,0-1.08,1.07,4.16,4.16,0,0,0-.58,1.42,5.4,5.4,0,0,0-.1,1.55,3.82,3.82,0,0,0,.58,1.89,4.74,4.74,0,0,0,1.29,1.33,6.81,6.81,0,0,0,1.7.84,8.79,8.79,0,0,0,1.79.4l0,0c0.22,0,.44.1,0.65,0.15,0.39,0,.78-0.05,1.19-0.06s0.63-.15,1-0.19a2.93,2.93,0,0,0-.28-0.14l1.1-.1a5.48,5.48,0,0,0,2.07-1.34,9.54,9.54,0,0,0,1.36-1.83,4.66,4.66,0,0,0,.47-2,17.9,17.9,0,0,0-.24-3.18c0-.24-0.11-0.66-0.19-1.28s-0.18-1.25-.29-1.89l-0.36-2.46a10.6,10.6,0,0,0,2.86-1.71,9.83,9.83,0,0,0,2-2.28,8.66,8.66,0,0,0,1.1-2.62,9,9,0,0,0,.23-2.73,10.23,10.23,0,0,0-.87-3.39,7.33,7.33,0,0,0-2.46-2.94,4.57,4.57,0,0,0-1-.5,9.42,9.42,0,0,0-1.36-.42,10.65,10.65,0,0,0-1.6-.24,8,8,0,0,0-1.62,0,3.41,3.41,0,0,0,0-.41l-0.13-.77c-0.06-.31-0.11-0.65-0.16-1s-0.11-.74-0.18-1.13q-0.23-1.32-.52-3c0.41-.37.82-0.7,1.24-1a6.58,6.58,0,0,0,1.18-1.15q0.58-.71,1.1-1.37a14.91,14.91,0,0,0,1-1.53q0.52-.87,1-1.73a11.26,11.26,0,0,0,.74-1.87,14.36,14.36,0,0,0,.47-2.29,20.73,20.73,0,0,0,.13-3,12.46,12.46,0,0,0-.41-2.6,19.17,19.17,0,0,0-.94-2.84,13.42,13.42,0,0,0-1.2-2.28,1.67,1.67,0,0,0-1.18-.94,2.24,2.24,0,0,0-1.52.84,12.34,12.34,0,0,0-1.53,2,17.81,17.81,0,0,0-1.26,2.41,11,11,0,0,0-.69,2.05,19.77,19.77,0,0,0-.32,2.6q-0.06,1.24,0,2.23t0.08,1.68q0.06,0.69.06,1a7.86,7.86,0,0,0,.11,1l0.15,0.76c0,0.23.08,0.45,0.11,0.66s0.06,0.46.08,0.74q-1.55,1.16-2.81,2.23t-2.42,2.16a17.42,17.42,0,0,0-2,2.28,18.11,18.11,0,0,0-1.75,2.83,15.5,15.5,0,0,0-1.18,3.22,10.53,10.53,0,0,0-.29,3.38,20.23,20.23,0,0,0,.44,3.09A10.47,10.47,0,0,0,1333.11,349.26Zm15.08-6.35a4.47,4.47,0,0,1,1.66,1.32,4.7,4.7,0,0,1,.79,1.66,11.72,11.72,0,0,1,.27,1.49q0,0.71,0,1.61a5.29,5.29,0,0,1-1.57,3.47,5.25,5.25,0,0,1-2.16,1.25l-1.84-11.25A5.8,5.8,0,0,1,1348.19,342.91Zm-5.51-20.65a17.61,17.61,0,0,1,.79-4,9.37,9.37,0,0,1,1.55-3,2.79,2.79,0,0,1,2.21-1.18,1.4,1.4,0,0,1,.89.29,2.21,2.21,0,0,1,.6.73,3.43,3.43,0,0,1,.32.92,8.12,8.12,0,0,1,.13.87,5.1,5.1,0,0,1-.5,2.52,13.49,13.49,0,0,1-1.57,2.6,22.58,22.58,0,0,1-2.13,2.42q-1.16,1.15-2.2,2A17.81,17.81,0,0,1,1342.68,322.26Zm-8.5,20.07a22.72,22.72,0,0,1,1.81-3.41,14.85,14.85,0,0,1,1.66-2.08q1-1.08,2.05-2t1.91-1.62q0.87-.68,1.23-0.9l1,5.85-0.65.19-0.6.23a5.14,5.14,0,0,0-.63.32,8.31,8.31,0,0,0-.74.52,9.48,9.48,0,0,0-1.4,1.37,7.3,7.3,0,0,0-1,1.5,7.54,7.54,0,0,0-.55,1.53,4.48,4.48,0,0,0-.11,1.44,10.26,10.26,0,0,0,.18,1.23,7.31,7.31,0,0,0,.27,1,5.13,5.13,0,0,0,.41.84,8.29,8.29,0,0,0,.6.86,6.47,6.47,0,0,0,1,1,7.94,7.94,0,0,0,1.79,1.13,0.46,0.46,0,0,1,.1-0.13l0.1-.11,0.1-.11a3.44,3.44,0,0,1-.89-0.66,6.26,6.26,0,0,1-.79-1,6.1,6.1,0,0,1-.6-1.15,3.84,3.84,0,0,1-.27-1.2,4.38,4.38,0,0,1,.16-1.33,4.18,4.18,0,0,1,.68-1.41,4,4,0,0,1,1.34-1.13,5.06,5.06,0,0,1,2.18-.53q0.26,1.71.47,3t0.47,2.76q0.26,1.5.47,2.76t0.47,3a10.35,10.35,0,0,1-4.62.11,10.93,10.93,0,0,1-4-1.66,9.9,9.9,0,0,1-2.84-3,8.32,8.32,0,0,1-1.26-3.8A7.26,7.26,0,0,1,1334.18,342.33Z" transform="translate(-1313.18 -94.5)"/></svg>